<svg width="1440" height="1526" viewBox="0 0 1440 1526" fill="none" xmlns="http://www.w3.org/2000/svg">
<g clip-path="url(#clip0)">
<rect width="1440" height="1526" fill="#071852"/>
<rect width="1440" height="1526" fill="#071852"/>
<g clip-path="url(#clip1)">
<path d="M1456.96 979.395C1503.95 1009.59 1517.78 1072.09 1487.84 1118.68C1457.88 1165.3 1395.28 1178.63 1348.32 1148.45L1351.78 1143.08C1395.77 1171.34 1454.37 1158.84 1482.42 1115.19C1510.47 1071.55 1497.49 1013.04 1453.5 984.774L1456.96 979.395Z" fill="#63CAF3"/>
<path d="M1449.22 991.445C1489.52 1017.35 1501.37 1070.92 1475.69 1110.87C1450.02 1150.82 1396.31 1162.32 1356.04 1136.44L1359.5 1131.06C1396.8 1155.03 1446.47 1144.43 1470.25 1107.42C1494.03 1070.41 1483 1020.81 1445.74 996.86L1449.22 991.445Z" fill="#63CAF3"/>
<path d="M1440.46 1005.07C1473.17 1026.1 1482.82 1069.59 1461.96 1102.04C1441.1 1134.5 1397.54 1143.8 1364.82 1122.78L1368.28 1117.4C1397.99 1136.49 1437.56 1128.02 1456.48 1098.57C1475.42 1069.09 1466.63 1029.6 1436.96 1010.52L1440.46 1005.07Z" fill="#63CAF3"/>
<path d="M1327.73 1135.27C1280.77 1105.1 1266.91 1042.58 1296.87 995.957C1326.81 949.37 1389.44 936.003 1436.39 966.177L1432.93 971.557C1388.94 943.287 1330.32 955.831 1302.29 999.441C1274.25 1043.09 1287.22 1101.59 1331.21 1129.86L1327.73 1135.27Z" fill="#63CAF3"/>
<path d="M1335.47 1123.22C1295.17 1097.32 1283.32 1043.75 1308.99 1003.8C1334.67 963.846 1388.38 952.35 1428.65 978.227L1425.19 983.607C1387.89 959.635 1338.22 970.235 1314.44 1007.25C1290.66 1044.26 1301.65 1093.84 1338.95 1117.81L1335.47 1123.22Z" fill="#63CAF3"/>
<path d="M1344.25 1109.56C1311.54 1088.54 1301.9 1045.04 1322.75 1012.59C1343.61 980.132 1387.18 970.833 1419.89 991.856L1416.43 997.235C1386.72 978.141 1347.12 986.593 1328.2 1016.04C1309.25 1045.52 1318.04 1085.01 1347.76 1104.11L1344.25 1109.56Z" fill="#63CAF3"/>
</g>
<path d="M272.156 968.892L266.857 984.525L267.012 984.54L239.81 1064.63L134.33 1052.42L129.017 1067.99L129.186 1068.07L101.983 1148.16L-3.50972 1135.89L-8.80894 1151.52L-8.65392 1151.54L-41.1865 1247.46L-23.9845 1249.44L8.56136 1153.58L96.6842 1163.79L96.6398 1163.93L113.842 1165.91L146.388 1070.05L234.51 1080.26L234.466 1080.4L251.668 1082.39L284.214 986.523L389.003 998.693L394.373 983.038L272.156 968.892Z" fill="white"/>
<path d="M235.464 909.496L230.165 925.128L230.32 925.143L203.118 1005.23L97.638 993.025L92.3256 1008.6L92.4938 1008.67L65.2916 1088.76L-40.2015 1076.5L-45.5007 1092.13L-45.3457 1092.14L-77.8783 1188.06L-60.6762 1190.05L-28.1436 1094.13L59.9924 1104.39L59.948 1104.53L77.1501 1106.52L109.696 1010.66L197.819 1020.87L197.774 1021.01L214.976 1022.99L247.522 927.127L352.382 939.274L357.681 923.642L235.464 909.496Z" fill="#FF5991"/>
<path d="M198.773 850.1L193.474 865.732L193.629 865.747L166.426 945.837L60.9464 933.629L55.6472 949.261L55.8022 949.276L28.6 1029.37L-76.8931 1017.1L-82.1923 1032.73L-82.0373 1032.75L-114.57 1128.67L-97.3678 1130.65L-64.8352 1034.73L23.3008 1045L23.2564 1045.14L40.4585 1047.12L73.0043 951.26L161.127 961.469L161.083 961.609L178.285 963.593L210.831 867.731L315.69 879.878L320.99 864.246L198.773 850.1Z" fill="white"/>
<path d="M1283.68 698.889C1322.4 666.524 1367.29 637.798 1421.08 627.081C1480.09 615.222 1538.17 617.927 1596.73 611.094C1698.49 599.286 1771.95 545.584 1829.29 480.07C1842.22 465.274 1812.89 458.235 1800.07 472.923C1769.42 507.979 1734.3 541.501 1685.14 563.64C1630 588.435 1570.72 589.515 1514.46 592.886C1467.31 595.705 1416.06 599.07 1369.37 617.127C1328.58 632.879 1290.55 660.244 1259.7 686.007C1243.72 699.267 1267.72 712.23 1283.68 698.889Z" fill="#FF5991"/>
<path d="M1301.2 749.457C1339.92 717.091 1384.81 688.363 1438.61 677.645C1497.62 665.785 1555.7 668.49 1614.26 661.656C1716.02 649.847 1789.47 596.142 1846.82 530.625C1859.75 515.829 1830.42 508.789 1817.6 523.478C1786.95 558.536 1751.82 592.059 1702.66 614.2C1647.52 638.997 1588.24 640.076 1531.99 643.448C1484.83 646.268 1433.58 649.633 1386.89 667.691C1346.1 683.444 1308.07 710.811 1277.22 736.575C1261.25 749.917 1285.25 762.88 1301.2 749.457Z" fill="#FF5991"/>
<path d="M1318.74 800.11C1357.46 767.745 1402.35 739.019 1456.15 728.302C1515.15 716.443 1573.23 719.148 1631.8 712.315C1733.55 700.507 1807.01 646.806 1864.36 581.292C1877.28 566.496 1847.95 559.457 1835.13 574.144C1804.48 609.2 1769.36 642.722 1720.2 664.862C1665.06 689.657 1605.78 690.736 1549.53 694.108C1502.37 696.927 1451.12 700.292 1404.43 718.348C1363.64 734.1 1325.61 761.466 1294.76 787.228C1278.78 800.488 1302.78 813.451 1318.74 800.11Z" fill="#FF5991"/>
<path d="M1230.57 545.332C1269.29 512.968 1314.18 484.242 1367.98 473.525C1426.99 461.667 1485.06 464.372 1543.63 457.539C1645.38 445.731 1718.84 392.03 1776.19 326.518C1789.11 311.722 1759.78 304.683 1746.96 319.371C1716.31 354.426 1681.19 387.947 1632.03 410.086C1576.89 434.881 1517.61 435.96 1461.36 439.331C1414.2 442.15 1362.95 445.515 1316.26 463.571C1275.47 479.323 1237.44 506.688 1206.59 532.45C1190.5 545.737 1214.49 558.7 1230.57 545.332Z" fill="#FF5991"/>
<path d="M1248.12 596.001C1286.84 563.64 1331.73 534.919 1385.52 524.203C1444.53 512.347 1502.61 515.052 1561.18 508.302C1662.94 496.496 1736.39 442.802 1793.73 377.297C1806.66 362.503 1777.33 355.464 1764.51 370.15C1733.86 405.201 1698.74 438.719 1649.58 460.855C1594.44 485.646 1535.16 486.725 1478.91 490.095C1431.76 492.913 1380.51 496.277 1333.82 514.331C1293.03 530.08 1255 557.442 1224.15 583.201C1208.05 596.406 1232.04 609.368 1248.12 596.001Z" fill="#FF5991"/>
<path d="M1265.64 646.574C1304.36 614.211 1349.25 585.487 1403.04 574.771C1462.05 562.913 1520.13 565.618 1578.7 558.867C1680.46 547.06 1753.92 493.362 1811.26 427.852C1824.19 413.057 1794.86 406.018 1782.04 420.705C1751.39 455.759 1716.26 489.279 1667.1 511.416C1611.96 536.21 1552.69 537.288 1496.43 540.66C1449.28 543.478 1398.03 546.843 1351.34 564.898C1310.55 580.648 1272.52 608.013 1241.67 633.773C1225.69 647.032 1249.57 660.022 1265.64 646.574Z" fill="#FF5991"/>
<path d="M50.8862 314.61L67.6369 321.894L147.504 197.674L143.499 170.567L50.8862 314.61Z" fill="white"/>
<path d="M154.351 234.112L150.267 206.995L73.4893 326.578L90.2622 333.874L154.351 234.112Z" fill="white"/>
<path d="M28.3131 302.708L45.0483 309.984L140.737 161.211L136.734 134.139L28.3131 302.708Z" fill="white"/>
<path d="M5.70992 290.73L22.4333 297.999L133.935 124.691L129.962 97.7114L5.70992 290.73Z" fill="white"/>
<path d="M-21.887 274.162L120.644 52.7902L118.799 40.2109L103.156 46.8557L-38.5785 266.863L-21.887 274.162Z" fill="white"/>
<path d="M96.0622 338.433L112.413 345.579L160.991 269.942L157.036 243.494L96.0622 338.433Z" fill="white"/>
<path d="M-99.717 231.085L-83.103 238.291L23.3556 73.2957L-5.88243 85.6586L-99.717 231.085Z" fill="white"/>
<path d="M-120.053 219.171L-103.444 226.375L-12.7857 85.8845L-42.09 98.2799L-120.053 219.171Z" fill="white"/>
<path d="M-79.3796 243.007L-62.7334 250.279L59.5455 60.6083L30.2532 73.0798L-79.3796 243.007Z" fill="white"/>
<path d="M-59.0187 254.986L-42.3978 262.196L95.6855 48.0112L66.4343 60.3837L-59.0187 254.986Z" fill="white"/>
<path d="M-16.8668 278.821L-0.151643 286.085L127.169 88.2309L123.092 61.2458L-16.8668 278.821Z" fill="white"/>
<path d="M80.6864 113.552L-151.545 216.921L108.308 329.577L80.6864 113.552Z" fill="#FF5991"/>
<path d="M1237.21 -48.1634C1298.72 -27.3131 1372.86 -1.78718 1415.3 49.1951C1451.08 92.1742 1444.9 142.513 1434.25 181.922C1431.2 193.251 1453.75 201.782 1456.8 190.452C1468.72 146.312 1471.92 95.78 1437.83 47.2637C1396.13 -12.0711 1308.95 -43.0505 1241.6 -65.8748C1226.98 -70.8186 1222.54 -53.1254 1237.21 -48.1634Z" fill="#FFF200"/>
<path d="M1243.72 -8.92351C1291.72 7.22469 1350.4 27.0598 1382.77 67.1149C1405.8 95.5907 1406.39 130.066 1400 156.989C1397.33 168.341 1419.75 176.827 1422.42 165.433C1429.8 134.086 1427.07 98.665 1404.89 65.0002C1373.16 16.8619 1301.84 -8.39071 1248.04 -26.4925C1233.56 -31.3674 1229.13 -13.8343 1243.72 -8.92351Z" fill="#FFF200"/>
<path d="M1253.29 34.3356C1285.7 45.2099 1323.76 58.2019 1346.59 84.5292C1361.51 101.73 1362.35 122.195 1358.55 138.739C1355.94 150.057 1378.3 158.498 1380.92 147.139C1385.96 125.116 1382.74 101.081 1365.45 78.0844C1341.54 46.3044 1294.69 29.2907 1257.6 16.8476C1243.15 11.9987 1238.73 29.451 1253.29 34.3356Z" fill="#FFF200"/>
<path d="M440.722 199.071V193.409H430.31V172.167H423.774V199.071H440.722ZM447.782 187.443C447.934 185.505 449.682 183.833 452.076 183.833C454.546 183.833 455.8 185.467 455.8 187.443H447.782ZM461.538 189.837C461.538 183.377 457.624 179.539 452.038 179.539C446.3 179.539 441.816 183.491 441.816 189.685C441.816 196.069 446.528 199.679 452.228 199.679C456.066 199.679 459.03 198.235 460.816 195.651L456.484 192.915C455.648 194.055 454.28 194.891 452.304 194.891C450.062 194.891 447.972 193.409 447.782 191.319H461.5C461.538 190.863 461.538 190.331 461.538 189.837ZM476.352 191.471C476.352 193.827 474.946 195.347 472.438 195.347C471.184 195.347 469.74 194.853 469.74 193.409C469.74 191.167 472.818 190.825 475.554 190.825H476.352V191.471ZM468.068 186.113C469.208 185.049 470.956 184.175 472.742 184.175C474.68 184.175 476.162 185.049 476.162 186.911V187.215C470.652 187.215 464.002 188.127 464.002 193.599C464.002 198.045 467.878 199.527 470.88 199.527C473.122 199.527 475.288 198.615 476.238 197.057H476.352V199.071H482.052V189.533C482.052 182.655 479.696 179.539 473.35 179.539C470.272 179.539 467.118 180.641 464.914 182.731L468.068 186.113ZM499.243 179.767C498.939 179.653 498.407 179.615 497.913 179.615C495.595 179.615 493.733 180.983 492.783 182.883H492.707V180.147H486.703V199.071H492.935V189.343C492.935 187.785 494.037 185.049 497.381 185.049C497.875 185.049 498.407 185.087 498.977 185.239L499.243 179.767ZM520.466 199.071V187.367C520.466 183.567 518.642 179.615 513.55 179.615C510.928 179.615 508.762 181.097 507.888 182.769H507.812V180.147H501.77V199.071H508.04V188.811C508.04 186.645 509.18 184.745 511.384 184.745C513.626 184.745 514.196 186.645 514.196 188.735V199.071H520.466ZM536.358 191.471C536.358 193.827 534.952 195.347 532.444 195.347C531.19 195.347 529.746 194.853 529.746 193.409C529.746 191.167 532.824 190.825 535.56 190.825H536.358V191.471ZM528.074 186.113C529.214 185.049 530.962 184.175 532.748 184.175C534.686 184.175 536.168 185.049 536.168 186.911V187.215C530.658 187.215 524.008 188.127 524.008 193.599C524.008 198.045 527.884 199.527 530.886 199.527C533.128 199.527 535.294 198.615 536.244 197.057H536.358V199.071H542.058V189.533C542.058 182.655 539.702 179.539 533.356 179.539C530.278 179.539 527.124 180.641 524.92 182.731L528.074 186.113ZM567.799 189.533C567.799 184.251 564.379 179.615 558.869 179.615C556.095 179.615 554.157 180.907 553.093 182.161H553.017V170.343H546.785V199.071H552.523V196.601H552.599C553.815 198.501 556.285 199.603 558.793 199.603C564.493 199.603 567.799 194.815 567.799 189.533ZM561.795 189.533C561.795 192.003 560.275 194.435 557.311 194.435C554.499 194.435 552.751 192.041 552.751 189.571C552.751 187.177 554.499 184.707 557.311 184.707C560.275 184.707 561.795 187.101 561.795 189.533ZM578.142 199.071V170.343H571.834V199.071H578.142ZM588.093 187.443C588.245 185.505 589.993 183.833 592.387 183.833C594.857 183.833 596.111 185.467 596.111 187.443H588.093ZM601.849 189.837C601.849 183.377 597.935 179.539 592.349 179.539C586.611 179.539 582.127 183.491 582.127 189.685C582.127 196.069 586.839 199.679 592.539 199.679C596.377 199.679 599.341 198.235 601.127 195.651L596.795 192.915C595.959 194.055 594.591 194.891 592.615 194.891C590.373 194.891 588.283 193.409 588.093 191.319H601.811C601.849 190.863 601.849 190.331 601.849 189.837ZM682.434 191.585V186.645H672.782V191.585H682.434ZM720.875 199.071L709.703 172.167H703.395L692.109 199.071H699.177L701.153 193.789H711.565L713.655 199.071H720.875ZM709.779 188.583H703.015L706.435 179.349L709.779 188.583ZM743.808 189.533C743.808 184.251 740.35 179.615 734.84 179.615C732.066 179.615 729.938 180.945 728.798 182.465H728.684V180.147H722.756V208.191H728.988V196.981H729.064C730.242 198.615 732.484 199.603 734.802 199.603C740.502 199.603 743.808 194.815 743.808 189.533ZM737.766 189.533C737.766 192.003 736.284 194.435 733.32 194.435C730.508 194.435 728.76 192.041 728.76 189.571C728.76 187.177 730.508 184.707 733.32 184.707C736.284 184.707 737.766 187.101 737.766 189.533ZM768.783 189.533C768.783 184.251 765.325 179.615 759.815 179.615C757.041 179.615 754.913 180.945 753.773 182.465H753.659V180.147H747.731V208.191H753.963V196.981H754.039C755.217 198.615 757.459 199.603 759.777 199.603C765.477 199.603 768.783 194.815 768.783 189.533ZM762.741 189.533C762.741 192.003 761.259 194.435 758.295 194.435C755.483 194.435 753.735 192.041 753.735 189.571C753.735 187.177 755.483 184.707 758.295 184.707C761.259 184.707 762.741 187.101 762.741 189.533ZM779.089 199.071V170.343H772.781V199.071H779.089ZM790.788 174.105C790.788 172.205 789.192 170.685 787.216 170.685C785.202 170.685 783.644 172.281 783.644 174.105C783.644 175.967 785.202 177.525 787.216 177.525C789.192 177.525 790.788 176.043 790.788 174.105ZM790.332 199.071V180.147H784.1V199.071H790.332ZM811.912 182.085C810.43 180.565 807.58 179.539 804.882 179.539C798.992 179.539 794.318 183.453 794.318 189.609C794.318 195.879 798.954 199.679 804.92 199.679C807.694 199.679 810.354 198.767 811.912 197.247L808.454 193.029C807.694 193.941 806.326 194.435 805.072 194.435C802.336 194.435 800.626 192.231 800.626 189.609C800.626 186.987 802.374 184.745 804.996 184.745C806.25 184.745 807.618 185.353 808.302 186.265L811.912 182.085ZM825.551 191.471C825.551 193.827 824.145 195.347 821.637 195.347C820.383 195.347 818.939 194.853 818.939 193.409C818.939 191.167 822.017 190.825 824.753 190.825H825.551V191.471ZM817.267 186.113C818.407 185.049 820.155 184.175 821.941 184.175C823.879 184.175 825.361 185.049 825.361 186.911V187.215C819.851 187.215 813.201 188.127 813.201 193.599C813.201 198.045 817.077 199.527 820.079 199.527C822.321 199.527 824.487 198.615 825.437 197.057H825.551V199.071H831.251V189.533C831.251 182.655 828.895 179.539 822.549 179.539C819.471 179.539 816.317 180.641 814.113 182.731L817.267 186.113ZM846.742 184.821V180.147H842.296V175.169H836.178V180.147H833.176V184.821H836.216V192.801C836.216 196.829 837.888 199.527 842.942 199.527C844.272 199.527 845.716 199.261 846.552 198.957L846.476 194.397C846.02 194.587 845.26 194.701 844.652 194.701C842.866 194.701 842.296 193.789 842.296 192.041V184.821H846.742ZM856.434 174.105C856.434 172.205 854.838 170.685 852.862 170.685C850.848 170.685 849.29 172.281 849.29 174.105C849.29 175.967 850.848 177.525 852.862 177.525C854.838 177.525 856.434 176.043 856.434 174.105ZM855.978 199.071V180.147H849.746V199.071H855.978ZM880.978 189.533C880.978 183.339 876.19 179.539 870.452 179.539C864.752 179.539 859.964 183.339 859.964 189.533C859.964 195.727 864.752 199.679 870.452 199.679C876.19 199.679 880.978 195.727 880.978 189.533ZM874.974 189.533C874.974 191.965 873.416 194.435 870.49 194.435C867.564 194.435 866.006 191.965 866.006 189.533C866.006 187.101 867.526 184.707 870.452 184.707C873.378 184.707 874.974 187.101 874.974 189.533ZM903.62 199.071V187.367C903.62 183.567 901.796 179.615 896.704 179.615C894.082 179.615 891.916 181.097 891.042 182.769H890.966V180.147H884.924V199.071H891.194V188.811C891.194 186.645 892.334 184.745 894.538 184.745C896.78 184.745 897.35 186.645 897.35 188.735V199.071H903.62ZM935.89 177.715V172.167H918.182V199.071H924.604V188.621H935.016V183.263H924.604V177.715H935.89ZM957.98 189.533C957.98 183.339 953.192 179.539 947.454 179.539C941.754 179.539 936.966 183.339 936.966 189.533C936.966 195.727 941.754 199.679 947.454 199.679C953.192 199.679 957.98 195.727 957.98 189.533ZM951.976 189.533C951.976 191.965 950.418 194.435 947.492 194.435C944.566 194.435 943.008 191.965 943.008 189.533C943.008 187.101 944.528 184.707 947.454 184.707C950.38 184.707 951.976 187.101 951.976 189.533ZM974.466 179.767C974.162 179.653 973.63 179.615 973.136 179.615C970.818 179.615 968.956 180.983 968.006 182.883H967.93V180.147H961.926V199.071H968.158V189.343C968.158 187.785 969.26 185.049 972.604 185.049C973.098 185.049 973.63 185.087 974.2 185.239L974.466 179.767ZM1007.39 199.071V187.367C1007.39 183.795 1005.64 179.615 1000.51 179.615C997.703 179.615 995.727 180.869 994.473 182.845C993.409 180.793 991.509 179.615 988.773 179.615C985.923 179.615 983.985 181.173 983.111 182.769H983.035V180.147H976.993V199.071H983.263V188.811C983.263 186.531 984.403 184.745 986.379 184.745C988.241 184.745 989.077 186.113 989.077 188.279V199.071H995.309V188.849C995.309 186.721 996.335 184.745 998.463 184.745C1000.67 184.745 1001.16 186.569 1001.16 188.735V199.071H1007.39Z" fill="white"/>
<path d="M634.821 199.071V193.523H623.839L630.071 187.975C632.541 185.771 634.783 183.529 634.783 179.691C634.783 174.067 629.995 171.445 625.055 171.445C619.811 171.445 615.403 174.675 614.795 180.109L620.913 180.945C621.179 178.551 622.585 176.879 624.713 176.879C626.727 176.879 628.057 178.209 628.057 180.109C628.057 181.743 627.183 182.997 625.853 184.251L615.365 193.751V199.071H634.821ZM660.148 185.543C660.148 177.943 657.26 171.445 649.66 171.445C642.022 171.445 639.096 177.943 639.096 185.543C639.096 193.181 642.022 199.793 649.66 199.793C657.26 199.793 660.148 193.181 660.148 185.543ZM653.612 185.543C653.612 189.001 653.004 194.321 649.66 194.321C646.278 194.321 645.632 189.001 645.632 185.543C645.632 182.161 646.278 176.841 649.66 176.841C653.004 176.841 653.612 182.161 653.612 185.543Z" fill="#FFF200"/>
<g clip-path="url(#clip2)">
<path d="M6.50623 524.278L-2.36823 529.06L2.41198 537.931L11.2864 533.149L6.50623 524.278Z" fill="white"/>
<path d="M24.2551 514.714L15.3807 519.496L20.1609 528.367L29.0353 523.584L24.2551 514.714Z" fill="white"/>
<path d="M42.0344 505.133L33.1599 509.915L37.9401 518.786L46.8146 514.004L42.0344 505.133Z" fill="white"/>
<path d="M59.7832 495.568L50.9088 500.351L55.689 509.221L64.5634 504.439L59.7832 495.568Z" fill="white"/>
<path d="M77.5322 486.004L68.6577 490.786L73.4379 499.657L82.3124 494.875L77.5322 486.004Z" fill="white"/>
<path d="M-2.66554 549.832L-11.54 554.615L-6.75978 563.485L2.11466 558.703L-2.66554 549.832Z" fill="white"/>
<path d="M15.1139 540.251L6.23944 545.034L11.0196 553.904L19.8941 549.122L15.1139 540.251Z" fill="white"/>
<path d="M32.8628 530.687L23.9883 535.469L28.7685 544.34L37.643 539.558L32.8628 530.687Z" fill="white"/>
<path d="M50.642 521.106L41.7676 525.888L46.5478 534.759L55.4222 529.977L50.642 521.106Z" fill="white"/>
<path d="M68.3909 511.542L59.5165 516.324L64.2967 525.195L73.1711 520.412L68.3909 511.542Z" fill="white"/>
<path d="M86.1398 501.977L77.2654 506.76L82.0456 515.63L90.92 510.848L86.1398 501.977Z" fill="white"/>
<path d="M5.94207 565.806L-2.93237 570.588L1.84783 579.459L10.7223 574.676L5.94207 565.806Z" fill="white"/>
<path d="M23.7215 556.225L14.847 561.007L19.6272 569.878L28.5017 565.096L23.7215 556.225Z" fill="white"/>
<path d="M41.4704 546.66L32.5959 551.443L37.3761 560.313L46.2506 555.531L41.4704 546.66Z" fill="white"/>
<path d="M59.2496 537.08L50.3752 541.862L55.1554 550.733L64.0298 545.95L59.2496 537.08Z" fill="white"/>
<path d="M76.9985 527.515L68.1241 532.297L72.9043 541.168L81.7787 536.386L76.9985 527.515Z" fill="white"/>
<path d="M94.7474 517.951L85.873 522.733L90.6532 531.604L99.5276 526.821L94.7474 517.951Z" fill="white"/>
<path d="M-3.19918 591.344L-12.0736 596.126L-7.29341 604.996L1.58102 600.214L-3.19918 591.344Z" fill="white"/>
<path d="M14.5497 581.779L5.67529 586.561L10.4555 595.432L19.3299 590.65L14.5497 581.779Z" fill="white"/>
<path d="M32.3292 572.198L23.4547 576.98L28.2349 585.851L37.1094 581.069L32.3292 572.198Z" fill="white"/>
<path d="M50.0781 562.634L41.2036 567.416L45.9838 576.287L54.8583 571.505L50.0781 562.634Z" fill="white"/>
<path d="M67.8573 553.053L58.9828 557.835L63.763 566.706L72.6375 561.924L67.8573 553.053Z" fill="white"/>
<path d="M85.6062 543.489L76.7318 548.271L81.512 557.141L90.3864 552.359L85.6062 543.489Z" fill="white"/>
<path d="M103.355 533.924L94.4807 538.706L99.2609 547.577L108.135 542.795L103.355 533.924Z" fill="white"/>
<path d="M5.42491 607.347L-3.44952 612.13L1.33068 621L10.2051 616.218L5.42491 607.347Z" fill="white"/>
<path d="M23.1738 597.783L14.2994 602.565L19.0796 611.436L27.954 606.654L23.1738 597.783Z" fill="white"/>
<path d="M40.9532 588.202L32.0788 592.984L36.859 601.855L45.7334 597.073L40.9532 588.202Z" fill="white"/>
<path d="M58.7021 578.638L49.8277 583.42L54.6079 592.291L63.4823 587.508L58.7021 578.638Z" fill="white"/>
<path d="M76.4814 569.057L67.6069 573.839L72.3871 582.71L81.2616 577.928L76.4814 569.057Z" fill="white"/>
<path d="M94.2303 559.492L85.3558 564.275L90.136 573.145L99.0105 568.363L94.2303 559.492Z" fill="white"/>
<path d="M111.979 549.928L103.105 554.71L107.885 563.581L116.759 558.799L111.979 549.928Z" fill="white"/>
<path d="M-3.71632 632.885L-12.5908 637.667L-7.81055 646.538L1.06388 641.756L-3.71632 632.885Z" fill="white"/>
<path d="M14.0326 623.321L5.15814 628.103L9.93835 636.974L18.8128 632.192L14.0326 623.321Z" fill="white"/>
<path d="M31.7815 613.756L22.907 618.539L27.6872 627.409L36.5617 622.627L31.7815 613.756Z" fill="white"/>
<path d="M49.5609 604.176L40.6865 608.958L45.4667 617.828L54.3411 613.046L49.5609 604.176Z" fill="white"/>
<path d="M67.3098 594.611L58.4354 599.393L63.2156 608.264L72.09 603.482L67.3098 594.611Z" fill="white"/>
<path d="M85.0891 585.03L76.2146 589.812L80.9948 598.683L89.8693 593.901L85.0891 585.03Z" fill="white"/>
<path d="M102.838 575.466L93.9635 580.248L98.7437 589.119L107.618 584.337L102.838 575.466Z" fill="white"/>
<path d="M120.587 565.901L111.712 570.684L116.493 579.554L125.367 574.772L120.587 565.901Z" fill="white"/>
<path d="M4.89128 648.859L-3.98315 653.641L0.797047 662.512L9.67149 657.729L4.89128 648.859Z" fill="white"/>
<path d="M22.6402 639.294L13.7657 644.076L18.5459 652.947L27.4204 648.165L22.6402 639.294Z" fill="white"/>
<path d="M40.3891 629.73L31.5146 634.512L36.2948 643.383L45.1693 638.6L40.3891 629.73Z" fill="white"/>
<path d="M58.1685 620.149L49.2941 624.931L54.0743 633.802L62.9487 629.02L58.1685 620.149Z" fill="white"/>
<path d="M75.9174 610.584L67.043 615.367L71.8232 624.237L80.6976 619.455L75.9174 610.584Z" fill="white"/>
<path d="M93.6967 601.004L84.8222 605.786L89.6024 614.657L98.4769 609.874L93.6967 601.004Z" fill="white"/>
<path d="M111.446 591.439L102.571 596.221L107.351 605.092L116.226 600.31L111.446 591.439Z" fill="white"/>
<path d="M129.194 581.875L120.32 586.657L125.1 595.528L133.975 590.745L129.194 581.875Z" fill="white"/>
<path d="M-4.28047 674.413L-13.1549 679.195L-8.37471 688.066L0.499729 683.284L-4.28047 674.413Z" fill="white"/>
<path d="M13.499 664.832L4.62451 669.614L9.40471 678.485L18.2791 673.703L13.499 664.832Z" fill="white"/>
<path d="M31.2478 655.268L22.3734 660.05L27.1536 668.921L36.028 664.138L31.2478 655.268Z" fill="white"/>
<path d="M48.9968 645.703L40.1223 650.485L44.9025 659.356L53.777 654.574L48.9968 645.703Z" fill="white"/>
<path d="M66.7762 636.122L57.9017 640.905L62.6819 649.775L71.5564 644.993L66.7762 636.122Z" fill="white"/>
<path d="M84.5251 626.558L75.6506 631.34L80.4308 640.211L89.3053 635.429L84.5251 626.558Z" fill="white"/>
<path d="M102.304 616.977L93.4299 621.759L98.2101 630.63L107.085 625.848L102.304 616.977Z" fill="white"/>
<path d="M120.053 607.413L111.179 612.195L115.959 621.066L124.833 616.283L120.053 607.413Z" fill="white"/>
<path d="M137.802 597.848L128.928 602.63L133.708 611.501L142.582 606.719L137.802 597.848Z" fill="white"/>
<path d="M4.3272 690.386L-4.54724 695.168L0.232956 704.039L9.10739 699.257L4.3272 690.386Z" fill="white"/>
<path d="M22.1066 680.805L13.2322 685.588L18.0124 694.458L26.8868 689.676L22.1066 680.805Z" fill="white"/>
<path d="M39.8555 671.241L30.9811 676.023L35.7613 684.894L44.6357 680.112L39.8555 671.241Z" fill="white"/>
<path d="M57.6044 661.677L48.73 666.459L53.5102 675.329L62.3846 670.547L57.6044 661.677Z" fill="white"/>
<path d="M75.3839 652.096L66.5094 656.878L71.2896 665.749L80.164 660.966L75.3839 652.096Z" fill="white"/>
<path d="M93.1327 642.531L84.2583 647.313L89.0385 656.184L97.9129 651.402L93.1327 642.531Z" fill="white"/>
<path d="M110.912 632.95L102.038 637.733L106.818 646.603L115.692 641.821L110.912 632.95Z" fill="white"/>
<path d="M128.661 623.386L119.786 628.168L124.567 637.039L133.441 632.257L128.661 623.386Z" fill="white"/>
<path d="M146.41 613.822L137.535 618.604L142.316 627.474L151.19 622.692L146.41 613.822Z" fill="white"/>
<path d="M12.9348 706.359L4.06036 711.142L8.84057 720.012L17.715 715.23L12.9348 706.359Z" fill="white"/>
<path d="M30.7142 696.779L21.8398 701.561L26.62 710.432L35.4944 705.649L30.7142 696.779Z" fill="white"/>
<path d="M48.4631 687.214L39.5887 691.996L44.3689 700.867L53.2433 696.085L48.4631 687.214Z" fill="white"/>
<path d="M66.212 677.65L57.3376 682.432L62.1178 691.303L70.9922 686.52L66.212 677.65Z" fill="white"/>
<path d="M83.9915 668.069L75.117 672.851L79.8972 681.722L88.7717 676.94L83.9915 668.069Z" fill="white"/>
<path d="M101.74 658.504L92.8659 663.287L97.6461 672.157L106.521 667.375L101.74 658.504Z" fill="white"/>
<path d="M119.52 648.924L110.645 653.706L115.425 662.577L124.3 657.794L119.52 648.924Z" fill="white"/>
<path d="M137.268 639.359L128.394 644.141L133.174 653.012L142.049 648.23L137.268 639.359Z" fill="white"/>
<path d="M155.017 629.795L146.143 634.577L150.923 643.448L159.798 638.665L155.017 629.795Z" fill="white"/>
<path d="M3.79375 731.897L-5.08069 736.679L-0.300484 745.55L8.57395 740.768L3.79375 731.897Z" fill="white"/>
<path d="M21.5425 722.333L12.668 727.115L17.4482 735.986L26.3227 731.203L21.5425 722.333Z" fill="white"/>
<path d="M39.3219 712.752L30.4474 717.534L35.2277 726.405L44.1021 721.623L39.3219 712.752Z" fill="white"/>
<path d="M57.0708 703.188L48.1964 707.97L52.9766 716.84L61.851 712.058L57.0708 703.188Z" fill="white"/>
<path d="M74.8197 693.623L65.9453 698.405L70.7255 707.276L79.5999 702.494L74.8197 693.623Z" fill="white"/>
<path d="M92.5991 684.042L83.7247 688.824L88.5049 697.695L97.3793 692.913L92.5991 684.042Z" fill="white"/>
<path d="M110.348 674.478L101.474 679.26L106.254 688.131L115.128 683.349L110.348 674.478Z" fill="white"/>
<path d="M128.127 664.897L119.253 669.679L124.033 678.55L132.907 673.768L128.127 664.897Z" fill="white"/>
<path d="M145.876 655.333L137.002 660.115L141.782 668.985L150.656 664.203L145.876 655.333Z" fill="white"/>
<path d="M163.625 645.768L154.751 650.55L159.531 659.421L168.405 654.639L163.625 645.768Z" fill="white"/>
<path d="M12.4178 747.901L3.5434 752.683L8.3236 761.554L17.198 756.772L12.4178 747.901Z" fill="white"/>
<path d="M30.1666 738.337L21.2921 743.119L26.0723 751.99L34.9468 747.207L30.1666 738.337Z" fill="white"/>
<path d="M47.946 728.756L39.0715 733.538L43.8517 742.409L52.7262 737.627L47.946 728.756Z" fill="white"/>
<path d="M65.6949 719.191L56.8204 723.974L61.6006 732.844L70.4751 728.062L65.6949 719.191Z" fill="white"/>
<path d="M83.4438 709.627L74.5693 714.409L79.3495 723.28L88.224 718.498L83.4438 709.627Z" fill="white"/>
<path d="M101.223 700.046L92.3488 704.828L97.129 713.699L106.003 708.917L101.223 700.046Z" fill="white"/>
<path d="M118.972 690.482L110.098 695.264L114.878 704.135L123.752 699.352L118.972 690.482Z" fill="white"/>
<path d="M136.751 680.901L127.877 685.683L132.657 694.554L141.532 689.772L136.751 680.901Z" fill="white"/>
<path d="M154.5 671.336L145.626 676.119L150.406 684.989L159.28 680.207L154.5 671.336Z" fill="white"/>
<path d="M172.249 661.772L163.375 666.554L168.155 675.425L177.029 670.643L172.249 661.772Z" fill="white"/>
</g>
</g>
<defs>
<clipPath id="clip0">
<rect width="1440" height="1526" fill="white"/>
</clipPath>
<clipPath id="clip1">
<rect x="1351.19" y="911.427" width="227" height="201" transform="rotate(32.7252 1351.19 911.427)" fill="white"/>
</clipPath>
<clipPath id="clip2">
<rect x="-126.702" y="596.061" width="232" height="214" transform="rotate(-28.3191 -126.702 596.061)" fill="white"/>
</clipPath>
</defs>
</svg>
